<svg width="36" height="24" viewBox="0 0 36 24" fill="none" xmlns="http://www.w3.org/2000/svg">
<path d="M12.75 12.5L23.25 12.5" stroke="#222222" stroke-linecap="round"/>
<path d="M18.75 3.5V7.1C18.75 7.94008 18.75 8.36012 18.9135 8.68099C19.0573 8.96323 19.2868 9.1927 19.569 9.33651C19.8899 9.5 20.3099 9.5 21.15 9.5H27.75" stroke="#222222"/>
<path d="M12.75 15.5L18.75 15.5" stroke="#222222" stroke-linecap="round"/>
<path d="M8.25 5.9C8.25 5.05992 8.25 4.63988 8.41349 4.31901C8.5573 4.03677 8.78677 3.8073 9.06901 3.66349C9.38988 3.5 9.80992 3.5 10.65 3.5H19.5233C19.7934 3.5 19.9285 3.5 20.0591 3.52328C20.175 3.54394 20.2881 3.57817 20.396 3.62528C20.5175 3.67835 20.6299 3.75326 20.8546 3.90308L26.6813 7.78752C27.072 8.04801 27.2674 8.17826 27.4088 8.35034C27.534 8.50268 27.628 8.67821 27.6853 8.8669C27.75 9.08003 27.75 9.31483 27.75 9.78444V18.1C27.75 18.9401 27.75 19.3601 27.5865 19.681C27.4427 19.9632 27.2132 20.1927 26.931 20.3365C26.6101 20.5 26.1901 20.5 25.35 20.5H10.65C9.80992 20.5 9.38988 20.5 9.06901 20.3365C8.78677 20.1927 8.5573 19.9632 8.41349 19.681C8.25 19.3601 8.25 18.9401 8.25 18.1V5.9Z" stroke="#222222"/>
</svg>
