<svg width="24" height="23" viewBox="0 0 24 23" fill="none" xmlns="http://www.w3.org/2000/svg">
<path d="M14.1385 3.24388L14.6358 3.19198L14.1385 3.24388ZM13.9964 2.47568L13.5477 2.69617L13.5477 2.69617L13.9964 2.47568ZM14.4075 4.58378L13.9996 4.8729L13.9996 4.87291L14.4075 4.58378ZM15.3752 4.99395L15.2993 4.49975V4.49975L15.3752 4.99395ZM16.5252 4.25557L16.2167 3.8621L16.2167 3.8621L16.5252 4.25557ZM16.6068 4.1916L16.9153 4.58507V4.58507L16.6068 4.1916ZM17.3145 3.72951L17.4528 4.20998H17.4528L17.3145 3.72951ZM17.9617 3.76162L17.7765 4.22604L17.7765 4.22604L17.9617 3.76162ZM18.6202 4.29151L18.2742 4.6525V4.6525L18.6202 4.29151ZM19.514 5.14811L19.8677 4.79448L19.86 4.78712L19.514 5.14811ZM19.5141 5.14812L19.1604 5.50175L19.1681 5.50911L19.5141 5.14812ZM19.9962 5.68114L19.554 5.91436L19.554 5.91436L19.9962 5.68114ZM20.0384 6.52338L20.5017 6.71128L20.5017 6.71127L20.0384 6.52338ZM19.6118 7.10188L19.9654 7.45543L19.9793 7.4415L19.9921 7.42653L19.6118 7.10188ZM19.6118 7.1019L19.2582 6.74835L19.2443 6.76227L19.2315 6.77725L19.6118 7.1019ZM18.8718 8.1311L18.3865 8.01066V8.01066L18.8718 8.1311ZM19.3121 9.21978L19.5772 8.79587L19.5772 8.79587L19.3121 9.21978ZM20.5595 9.44527L20.6072 8.94755V8.94755L20.5595 9.44527ZM20.6624 9.45514L20.6147 9.95286H20.6147L20.6624 9.45514ZM21.4337 9.591L21.6505 9.14047H21.6505L21.4337 9.591ZM21.9383 10.1463L21.4692 10.3192V10.3192L21.9383 10.1463ZM21.9384 12.8536L21.4692 12.6807V12.6807L21.9384 12.8536ZM21.4336 13.409L21.2168 12.9585V12.9585L21.4336 13.409ZM20.6626 13.5448L20.6149 13.0471H20.6149L20.6626 13.5448ZM20.5595 13.5547L20.6072 14.0524V14.0524L20.5595 13.5547ZM19.3126 13.7801L19.5777 14.204L19.3126 13.7801ZM18.8722 14.869L19.3575 14.7485V14.7485L18.8722 14.869ZM19.612 15.8978L19.9922 15.5731L19.612 15.8978ZM20.0384 16.4761L19.575 16.664L19.5751 16.664L20.0384 16.4761ZM19.9962 17.3185L20.4385 17.5518V17.5518L19.9962 17.3185ZM19.5142 17.8513L19.1682 17.4902L19.1607 17.4978L19.5142 17.8513ZM19.5142 17.8513L19.8602 18.2124L19.8678 18.2049L19.5142 17.8513ZM18.6202 18.708L18.9662 19.069L18.9662 19.069L18.6202 18.708ZM17.9617 19.2379L17.7765 18.7735L17.7765 18.7735L17.9617 19.2379ZM17.3145 19.27L17.4529 18.7896L17.4529 18.7896L17.3145 19.27ZM16.6068 18.808L16.9153 18.4145L16.6068 18.808ZM16.5255 18.7442L16.2169 19.1376L16.5255 18.7442ZM15.375 18.0056L15.4509 17.5114H15.4508L15.375 18.0056ZM14.4077 18.4156L14.8156 18.7048H14.8156L14.4077 18.4156ZM14.1385 19.756L13.6412 19.7041L14.1385 19.756ZM13.9964 20.5244L14.4451 20.7449L13.9964 20.5244ZM13.4445 21.0217L13.6172 21.4909H13.6172L13.4445 21.0217ZM10.5556 21.0218L10.3829 21.491L10.3829 21.491L10.5556 21.0218ZM10.0036 20.5243L10.4523 20.3038H10.4523L10.0036 20.5243ZM9.86151 19.7561L10.3588 19.7042L9.86151 19.7561ZM9.59245 18.4161L10.0004 18.127V18.127L9.59245 18.4161ZM8.62484 18.006L8.70072 18.5002H8.70072L8.62484 18.006ZM7.4748 18.7444L7.16628 18.3509L7.15415 18.3604L7.14262 18.3707L7.4748 18.7444ZM7.47479 18.7444L7.7833 19.1379L7.79544 19.1283L7.80697 19.1181L7.47479 18.7444ZM7.39318 18.8084L7.08465 18.4149L7.08083 18.4179L7.39318 18.8084ZM7.39316 18.8084L7.70168 19.2019L7.7055 19.1988L7.39316 18.8084ZM6.68542 19.2705L6.54707 18.79L6.54706 18.79L6.68542 19.2705ZM6.03824 19.2384L5.853 19.7028L5.853 19.7028L6.03824 19.2384ZM5.3797 18.7085L5.03375 19.0695L5.3797 18.7085ZM4.48589 17.8519L4.83184 17.4909H4.83184L4.48589 17.8519ZM4.00368 17.3188L3.5614 17.5521L3.5614 17.5521L4.00368 17.3188ZM3.96153 16.4766L4.42489 16.6645L4.42489 16.6645L3.96153 16.4766ZM4.38811 15.8981L4.76837 16.2228L4.77863 16.2107L4.78811 16.1981L4.38811 15.8981ZM4.38811 15.8981L4.00785 15.5734L3.99759 15.5855L3.98811 15.5981L4.38811 15.8981ZM5.12814 14.8689L5.61342 14.9893L5.12814 14.8689ZM4.68789 13.7802L4.95304 13.3563L4.68789 13.7802ZM3.44046 13.5547L3.48816 13.057L3.46436 13.0547H3.44046V13.5547ZM3.44045 13.5547L3.39275 14.0524L3.41655 14.0547H3.44045V13.5547ZM3.33753 13.5448L3.26221 14.0391L3.27598 14.0412L3.28984 14.0426L3.33753 13.5448ZM3.33751 13.5448L3.41283 13.0505L3.39907 13.0484L3.38521 13.0471L3.33751 13.5448ZM2.56633 13.409L2.78317 12.9584H2.78317L2.56633 13.409ZM2.06167 12.8536L2.53083 12.6808H2.53083L2.06167 12.8536ZM2 12.073H1.5H2ZM2 10.9271H2.5H2ZM2.0617 10.1462L2.53085 10.3192L2.53085 10.3192L2.0617 10.1462ZM2.56625 9.59104L2.78312 10.0416H2.78312L2.56625 9.59104ZM3.33765 9.45513L3.38535 9.95285H3.38535L3.33765 9.45513ZM3.44048 9.44528L3.39278 8.94756L3.39278 8.94756L3.44048 9.44528ZM4.68843 9.21964L4.42319 8.79579H4.42319L4.68843 9.21964ZM5.12857 8.13126L5.61387 8.01093V8.01093L5.12857 8.13126ZM4.38827 7.10159L4.76853 6.77693L4.38827 7.10159ZM3.96153 6.52281L4.42491 6.33498H4.42491L3.96153 6.52281ZM4.00366 5.68083L3.56135 5.44767L4.00366 5.68083ZM4.48605 5.14755L4.1401 4.78656L4.1401 4.78656L4.48605 5.14755ZM5.37975 4.29109L5.72578 4.65217L5.7333 4.64465L5.37975 4.29109ZM5.37975 4.29109L5.03372 3.93001L5.0262 3.93754L5.37975 4.29109ZM6.03828 3.76118L6.22352 4.2256L6.22352 4.2256L6.03828 3.76118ZM6.68546 3.72907L6.82381 3.24859H6.82381L6.68546 3.72907ZM7.39322 4.19118L7.70174 3.79771L7.39322 4.19118ZM7.47505 4.25535L7.16654 4.64882L7.47505 4.25535ZM8.62472 4.99355L8.54876 5.48775H8.54876L8.62472 4.99355ZM9.59259 4.58329L10.0006 4.87235V4.87235L9.59259 4.58329ZM9.86152 3.24375L10.3588 3.29564V3.29564L9.86152 3.24375ZM10.0035 2.47578L9.55473 2.25534L10.0035 2.47578ZM10.5557 1.97818L10.3831 1.50894V1.50894L10.5557 1.97818ZM13.4444 1.97822L13.2716 2.44744L13.2716 2.44744L13.4444 1.97822ZM14.6358 3.19198C14.5979 2.82878 14.5728 2.51499 14.4452 2.2552L13.5477 2.69617C13.5772 2.75626 13.5945 2.84798 13.6412 3.29577L14.6358 3.19198ZM14.8155 4.29466C14.8052 4.28017 14.7729 4.22249 14.7377 4.02675C14.7032 3.83486 14.6758 3.5752 14.6358 3.19198L13.6412 3.29577C13.6795 3.66329 13.7109 3.96667 13.7534 4.2036C13.7953 4.43668 13.8583 4.67359 13.9996 4.8729L14.8155 4.29466ZM15.2993 4.49975C15.1122 4.52847 14.9249 4.44909 14.8155 4.29466L13.9996 4.87291C14.328 5.33619 14.8898 5.57434 15.4511 5.48816L15.2993 4.49975ZM16.2167 3.8621C15.9135 4.09984 15.7078 4.26069 15.5459 4.36935C15.3808 4.48019 15.3168 4.49705 15.2993 4.49975L15.4511 5.48816C15.6925 5.45108 15.9066 5.33162 16.1032 5.19965C16.3031 5.06549 16.5429 4.87704 16.8337 4.64904L16.2167 3.8621ZM16.2983 3.79813L16.2167 3.8621L16.8337 4.64904L16.9153 4.58507L16.2983 3.79813ZM17.1761 3.24903C17.0117 3.29639 16.872 3.37531 16.7398 3.465C16.6122 3.55165 16.4664 3.66627 16.2983 3.79813L16.9153 4.58507C17.0942 4.44479 17.2088 4.35529 17.3014 4.2924C17.3896 4.23255 17.4302 4.2165 17.4528 4.20998L17.1761 3.24903ZM18.147 3.29721C17.8377 3.17383 17.4961 3.15689 17.1761 3.24903L17.4528 4.20998C17.5595 4.17927 17.6734 4.18492 17.7765 4.22604L18.147 3.29721ZM18.9661 3.93051C18.8119 3.78265 18.6782 3.65417 18.5597 3.55531C18.4371 3.45298 18.3059 3.36061 18.147 3.29721L17.7765 4.22604C17.7983 4.23477 17.8372 4.25476 17.919 4.32305C18.0049 4.3948 18.1101 4.4952 18.2742 4.6525L18.9661 3.93051ZM19.86 4.78712L18.9661 3.93051L18.2742 4.6525L19.1681 5.5091L19.86 4.78712ZM19.8676 4.79457L19.8676 4.79456L19.1605 5.50166L19.1605 5.50167L19.8676 4.79457ZM20.4385 5.44792C20.3156 5.21491 20.1028 5.01982 19.86 4.78713L19.1681 5.50911C19.4674 5.79593 19.5256 5.8606 19.554 5.91436L20.4385 5.44792ZM20.5017 6.71127C20.6679 6.30143 20.6448 5.83913 20.4385 5.44792L19.554 5.91436C19.6227 6.04476 19.6304 6.19886 19.575 6.33548L20.5017 6.71127ZM19.9921 7.42653C20.2105 7.17076 20.4027 6.95539 20.5017 6.71128L19.575 6.33547C19.5522 6.3918 19.5007 6.46196 19.2316 6.77722L19.9921 7.42653ZM19.9654 7.45544L19.9654 7.45543L19.2583 6.74832L19.2583 6.74833L19.9654 7.45544ZM19.9654 7.45545L19.9654 7.45544L19.2583 6.74833L19.2582 6.74835L19.9654 7.45545ZM19.3571 8.25153C19.3605 8.23774 19.381 8.17978 19.4929 8.02984C19.6018 7.88406 19.7598 7.6986 19.9921 7.42655L19.2315 6.77725C19.0083 7.03867 18.8248 7.25331 18.6917 7.43151C18.5617 7.60555 18.4399 7.79546 18.3865 8.01066L19.3571 8.25153ZM19.5772 8.79587C19.3938 8.68115 19.305 8.46149 19.3571 8.25153L18.3865 8.01066C18.2302 8.64055 18.4967 9.29953 19.0469 9.64369L19.5772 8.79587ZM20.6072 8.94755C20.2511 8.91343 20.0086 8.88993 19.829 8.8608C19.6443 8.83084 19.5892 8.80341 19.5772 8.79587L19.0469 9.64368C19.2349 9.76127 19.4545 9.81313 19.6689 9.8479C19.8884 9.88351 20.1696 9.9102 20.5118 9.94299L20.6072 8.94755ZM20.7101 8.95742L20.6072 8.94755L20.5118 9.94299L20.6147 9.95286L20.7101 8.95742ZM21.6505 9.14047C21.3894 9.01481 21.0747 8.99235 20.7101 8.95742L20.6147 9.95286C21.0642 9.99594 21.1565 10.0125 21.2168 10.0415L21.6505 9.14047ZM22.4075 9.97346C22.2729 9.60806 22.0014 9.30935 21.6505 9.14047L21.2168 10.0415C21.3338 10.0978 21.4243 10.1974 21.4692 10.3192L22.4075 9.97346ZM22.5 10.927C22.5 10.5608 22.5077 10.2453 22.4075 9.97345L21.4692 10.3192C21.4923 10.3821 21.5 10.4755 21.5 10.927H22.5ZM22.5 12.0731V10.927H21.5V12.0731H22.5ZM22.4075 13.0264C22.5077 12.7546 22.5 12.4392 22.5 12.0731H21.5C21.5 12.5245 21.4923 12.6179 21.4692 12.6807L22.4075 13.0264ZM21.6504 13.8596C22.0014 13.6907 22.2729 13.3919 22.4075 13.0264L21.4692 12.6807C21.4243 12.8026 21.3338 12.9022 21.2168 12.9585L21.6504 13.8596ZM20.7103 14.0425C21.0747 14.0076 21.3894 13.9852 21.6504 13.8596L21.2168 12.9585C21.1564 12.9875 21.0642 13.004 20.6149 13.0471L20.7103 14.0425ZM20.6072 14.0524L20.7103 14.0425L20.6149 13.0471L20.5118 13.057L20.6072 14.0524ZM19.5777 14.204C19.5897 14.1965 19.6447 14.1691 19.8293 14.1391C20.0089 14.11 20.2513 14.0865 20.6072 14.0524L20.5118 13.057C20.1698 13.0898 19.8887 13.1164 19.6693 13.152C19.4549 13.1868 19.2355 13.2386 19.0475 13.3561L19.5777 14.204ZM19.3575 14.7485C19.3053 14.5385 19.3942 14.3187 19.5777 14.204L19.0475 13.3561C18.4971 13.7003 18.2305 14.3595 18.387 14.9896L19.3575 14.7485ZM19.9922 15.5731C19.7601 15.3012 19.6021 15.1158 19.4933 14.9701C19.3814 14.8202 19.3609 14.7623 19.3575 14.7485L18.387 14.9896C18.4404 15.2047 18.5622 15.3945 18.6921 15.5685C18.8251 15.7466 19.0086 15.9611 19.2317 16.2224L19.9922 15.5731ZM20.5017 16.2881C20.4027 16.0441 20.2105 15.8288 19.9922 15.5731L19.2317 16.2224C19.5008 16.5376 19.5522 16.6077 19.575 16.664L20.5017 16.2881ZM20.4385 17.5518C20.6449 17.1605 20.668 16.698 20.5017 16.2881L19.5751 16.664C19.6305 16.8007 19.6228 16.9548 19.554 17.0853L20.4385 17.5518ZM19.8602 18.2123C20.1029 17.9797 20.3156 17.7847 20.4385 17.5518L19.554 17.0853C19.5256 17.139 19.4674 17.2036 19.1683 17.4903L19.8602 18.2123ZM19.8678 18.2049L19.8678 18.2049L19.1607 17.4978L19.1607 17.4978L19.8678 18.2049ZM18.9662 19.069L19.8602 18.2123L19.1683 17.4903L18.2743 18.3471L18.9662 19.069ZM18.147 19.7023C18.306 19.6389 18.4372 19.5466 18.5598 19.4442C18.6782 19.3454 18.8119 19.2169 18.9662 19.069L18.2743 18.3471C18.1101 18.5044 18.005 18.6048 17.919 18.6765C17.8372 18.7448 17.7984 18.7648 17.7765 18.7735L18.147 19.7023ZM17.1762 19.7505C17.4961 19.8427 17.8377 19.8257 18.147 19.7023L17.7765 18.7735C17.6734 18.8146 17.5596 18.8203 17.4529 18.7896L17.1762 19.7505ZM16.2983 19.2014C16.4665 19.3333 16.6122 19.4479 16.7399 19.5346C16.872 19.6242 17.0117 19.7032 17.1762 19.7505L17.4529 18.7896C17.4302 18.7831 17.3896 18.767 17.3015 18.7071C17.2088 18.6443 17.0942 18.5548 16.9153 18.4145L16.2983 19.2014ZM16.2169 19.1376L16.2983 19.2014L16.9153 18.4145L16.834 18.3507L16.2169 19.1376ZM15.2992 18.4998C15.3168 18.5025 15.3808 18.5194 15.546 18.6302C15.7079 18.7389 15.9136 18.8998 16.2169 19.1376L16.834 18.3507C16.5431 18.1226 16.3032 17.9341 16.1033 17.7999C15.9066 17.6679 15.6924 17.5484 15.4509 17.5114L15.2992 18.4998ZM14.8156 18.7048C14.925 18.5505 15.1122 18.4711 15.2992 18.4998L15.4508 17.5114C14.8897 17.4253 14.3281 17.6634 13.9998 18.1264L14.8156 18.7048ZM14.6358 19.8079C14.6758 19.4245 14.7032 19.1648 14.7377 18.9728C14.7729 18.777 14.8053 18.7193 14.8156 18.7048L13.9998 18.1264C13.8584 18.3258 13.7954 18.5628 13.7535 18.7959C13.7109 19.0329 13.6796 19.3364 13.6412 19.7041L14.6358 19.8079ZM14.4451 20.7449C14.5728 20.4851 14.5979 20.1712 14.6358 19.8079L13.6412 19.7041C13.5945 20.152 13.5772 20.2438 13.5477 20.3039L14.4451 20.7449ZM13.6172 21.4909C13.9788 21.3578 14.2752 21.0907 14.4451 20.7449L13.5477 20.3039C13.491 20.4191 13.3922 20.5081 13.2717 20.5525L13.6172 21.4909ZM12.6654 21.5833C13.0307 21.5833 13.3455 21.591 13.6172 21.4909L13.2717 20.5525C13.2088 20.5757 13.1158 20.5833 12.6654 20.5833V21.5833ZM11.3344 21.5833H12.6654V20.5833H11.3344V21.5833ZM10.3829 21.491C10.6545 21.591 10.9693 21.5833 11.3344 21.5833V20.5833C10.8842 20.5833 10.7912 20.5757 10.7284 20.5525L10.3829 21.491ZM9.55481 20.7448C9.72474 21.0907 10.0213 21.3579 10.3829 21.491L10.7284 20.5525C10.6078 20.5082 10.509 20.4191 10.4523 20.3038L9.55481 20.7448ZM9.36421 19.808C9.40211 20.1712 9.42716 20.485 9.55481 20.7448L10.4523 20.3038C10.4228 20.2437 10.4055 20.152 10.3588 19.7042L9.36421 19.808ZM9.18452 18.7053C9.19479 18.7198 9.22714 18.7774 9.26231 18.9732C9.29679 19.1651 9.32422 19.4248 9.36421 19.808L10.3588 19.7042C10.3205 19.3367 10.2891 19.0333 10.2465 18.7963C10.2047 18.5632 10.1417 18.3263 10.0004 18.127L9.18452 18.7053ZM8.70072 18.5002C8.8878 18.4715 9.07507 18.5508 9.18452 18.7053L10.0004 18.127C9.67202 17.6637 9.11022 17.4256 8.54896 17.5118L8.70072 18.5002ZM7.78332 19.1378C8.08653 18.9001 8.29221 18.7392 8.45409 18.6306C8.61922 18.5197 8.68316 18.5029 8.70072 18.5002L8.54897 17.5118C8.30748 17.5488 8.0934 17.6683 7.89678 17.8003C7.69689 17.9344 7.45708 18.1229 7.16628 18.3509L7.78332 19.1378ZM7.80697 19.1181L7.80698 19.1181L7.14262 18.3707L7.1426 18.3707L7.80697 19.1181ZM7.70169 19.2018L7.7833 19.1379L7.16627 18.3509L7.08466 18.4149L7.70169 19.2018ZM7.7055 19.1988L7.70552 19.1988L7.08083 18.4179L7.08081 18.418L7.7055 19.1988ZM6.82376 19.751C6.98822 19.7036 7.12795 19.6247 7.26009 19.535C7.38776 19.4483 7.53349 19.3337 7.70167 19.2019L7.08464 18.4149C6.90573 18.5552 6.79114 18.6447 6.69849 18.7076C6.61031 18.7674 6.56971 18.7835 6.54707 18.79L6.82376 19.751ZM5.853 19.7028C6.16228 19.8262 6.5038 19.8431 6.82377 19.751L6.54706 18.79C6.44041 18.8207 6.32657 18.8151 6.22348 18.774L5.853 19.7028ZM5.03375 19.0695C5.18805 19.2173 5.32173 19.3458 5.44019 19.4447C5.56281 19.547 5.69404 19.6394 5.853 19.7028L6.22348 18.774C6.20159 18.7652 6.16277 18.7452 6.08095 18.6769C5.99497 18.6052 5.88981 18.5048 5.72566 18.3475L5.03375 19.0695ZM4.13993 18.2129L5.03375 19.0695L5.72566 18.3475L4.83184 17.4909L4.13993 18.2129ZM3.5614 17.5521C3.68428 17.7851 3.89711 17.9802 4.13993 18.2129L4.83184 17.4909C4.53254 17.2041 4.47431 17.1394 4.44596 17.0856L3.5614 17.5521ZM3.49818 16.2887C3.33199 16.6986 3.35512 17.1609 3.5614 17.5521L4.44596 17.0856C4.3772 16.9552 4.36949 16.8011 4.42489 16.6645L3.49818 16.2887ZM4.00785 15.5735C3.78947 15.8292 3.59718 16.0446 3.49818 16.2887L4.42489 16.6645C4.44773 16.6082 4.4992 16.538 4.76837 16.2228L4.00785 15.5735ZM3.98811 15.5981L3.98811 15.5981L4.78811 16.1981L4.78811 16.1981L3.98811 15.5981ZM4.64286 14.7484C4.63944 14.7622 4.61897 14.8202 4.50699 14.9701C4.39813 15.1159 4.24012 15.3014 4.00785 15.5734L4.76838 16.2227C4.99157 15.9613 5.17517 15.7467 5.30824 15.5685C5.43821 15.3944 5.56002 15.2045 5.61342 14.9893L4.64286 14.7484ZM4.42274 14.2041C4.60614 14.3188 4.69497 14.5385 4.64286 14.7484L5.61342 14.9893C5.76974 14.3594 5.50325 13.7005 4.95304 13.3563L4.42274 14.2041ZM3.39276 14.0524C3.74884 14.0865 3.99135 14.11 4.17095 14.1392C4.35568 14.1691 4.41069 14.1966 4.42274 14.2041L4.95304 13.3563C4.76505 13.2387 4.54548 13.1868 4.33106 13.1521C4.11152 13.1165 3.83033 13.0898 3.48816 13.057L3.39276 14.0524ZM3.44045 14.0547H3.44046V13.0547H3.44045V14.0547ZM3.28984 14.0426L3.39275 14.0524L3.48814 13.057L3.38523 13.0471L3.28984 14.0426ZM3.26219 14.0391L3.26221 14.0391L3.41285 13.0505L3.41283 13.0505L3.26219 14.0391ZM2.3495 13.8595C2.61057 13.9852 2.92532 14.0076 3.28982 14.0426L3.38521 13.0471C2.93576 13.004 2.84353 12.9875 2.78317 12.9584L2.3495 13.8595ZM1.5925 13.0265C1.72713 13.3919 1.9986 13.6906 2.3495 13.8595L2.78317 12.9584C2.6662 12.9022 2.57571 12.8026 2.53083 12.6808L1.5925 13.0265ZM1.5 12.073C1.5 12.4392 1.49233 12.7546 1.5925 13.0265L2.53083 12.6808C2.50767 12.6179 2.5 12.5245 2.5 12.073H1.5ZM1.5 10.9271L1.5 12.073H2.5L2.5 10.9271H1.5ZM1.59255 9.97334C1.49232 10.2453 1.5 10.5608 1.5 10.9271H2.5C2.5 10.4754 2.50768 10.382 2.53085 10.3192L1.59255 9.97334ZM2.34937 9.14052C1.99858 9.30939 1.72719 9.60804 1.59255 9.97334L2.53085 10.3192C2.57573 10.1974 2.66619 10.0978 2.78312 10.0416L2.34937 9.14052ZM3.28995 8.95741C2.92535 8.99235 2.61051 9.01481 2.34937 9.14052L2.78312 10.0416C2.8435 10.0125 2.93576 9.99594 3.38535 9.95285L3.28995 8.95741ZM3.39278 8.94756L3.28995 8.95741L3.38535 9.95285L3.48818 9.943L3.39278 8.94756ZM4.42319 8.79579C4.41114 8.80333 4.35612 8.83078 4.17131 8.86076C3.99164 8.88991 3.74902 8.91342 3.39278 8.94756L3.48818 9.943C3.8305 9.91019 4.11181 9.88349 4.33144 9.84786C4.54595 9.81306 4.76561 9.76117 4.95366 9.64349L4.42319 8.79579ZM4.64326 8.2516C4.69531 8.4615 4.60651 8.68107 4.42319 8.79579L4.95366 9.64349C5.50363 9.29934 5.77001 8.64063 5.61387 8.01093L4.64326 8.2516ZM4.008 7.42624C4.24037 7.69841 4.39845 7.88396 4.50735 8.02981C4.61937 8.17982 4.63984 8.2378 4.64326 8.2516L5.61387 8.01093C5.56048 7.79562 5.43863 7.60562 5.30862 7.4315C5.17549 7.25321 4.99182 7.03847 4.76853 6.77693L4.008 7.42624ZM3.49815 6.71065C3.59716 6.95489 3.78954 7.17035 4.008 7.42624L4.76853 6.77693C4.49925 6.46152 4.44775 6.39133 4.42491 6.33498L3.49815 6.71065ZM3.56135 5.44767C3.35519 5.83878 3.33206 6.30091 3.49815 6.71065L4.42491 6.33498C4.36954 6.1984 4.37725 6.04436 4.44597 5.91399L3.56135 5.44767ZM4.1401 4.78656C3.89718 5.01936 3.68425 5.21454 3.56135 5.44767L4.44597 5.91399C4.47433 5.8602 4.53258 5.7955 4.832 5.50855L4.1401 4.78656ZM5.0338 3.9301L4.1401 4.78656L4.832 5.50855L5.7257 4.65209L5.0338 3.9301ZM5.0262 3.93754L5.0262 3.93754L5.7333 4.64465L5.73331 4.64464L5.0262 3.93754ZM5.85305 3.29676C5.69408 3.36016 5.56286 3.45253 5.44024 3.55487C5.32178 3.65374 5.1881 3.78222 5.0338 3.9301L5.7257 4.65208C5.88986 4.49477 5.99502 4.39437 6.081 4.32261C6.16282 4.25432 6.20163 4.23433 6.22352 4.2256L5.85305 3.29676ZM6.82381 3.24859C6.50385 3.15646 6.16232 3.1734 5.85304 3.29676L6.22352 4.2256C6.32661 4.18448 6.44045 4.17883 6.54711 4.20954L6.82381 3.24859ZM7.70174 3.79771C7.53355 3.66584 7.38781 3.55122 7.26015 3.46457C7.128 3.37487 6.98827 3.29594 6.82381 3.24859L6.54711 4.20954C6.56976 4.21607 6.61036 4.23212 6.69854 4.29197C6.7912 4.35486 6.90579 4.44436 7.0847 4.58465L7.70174 3.79771ZM7.78357 3.86188L7.70174 3.79771L7.0847 4.58465L7.16654 4.64882L7.78357 3.86188ZM8.70068 4.49936C8.68313 4.49666 8.61921 4.47979 8.45413 4.36898C8.2923 4.26036 8.08669 4.09955 7.78357 3.86188L7.16654 4.64882C7.45724 4.87675 7.69698 5.06515 7.8968 5.19927C8.09336 5.33121 8.30736 5.45065 8.54876 5.48775L8.70068 4.49936ZM9.18461 4.29422C9.07515 4.44871 8.88782 4.52812 8.70068 4.49936L8.54876 5.48775C9.11018 5.57404 9.67218 5.33582 10.0006 4.87235L9.18461 4.29422ZM9.36422 3.19186C9.32424 3.57496 9.29683 3.83455 9.26236 4.02638C9.2272 4.22207 9.19488 4.27974 9.18461 4.29422L10.0006 4.87235C10.1418 4.67307 10.2047 4.43622 10.2466 4.20321C10.2892 3.96635 10.3205 3.66305 10.3588 3.29564L9.36422 3.19186ZM9.55473 2.25534C9.42715 2.51507 9.40211 2.82876 9.36422 3.19186L10.3588 3.29564C10.4055 2.84798 10.4228 2.75629 10.4523 2.69622L9.55473 2.25534ZM10.3831 1.50894C10.0213 1.64207 9.72468 1.90935 9.55473 2.25534L10.4523 2.69622C10.5089 2.58089 10.6078 2.49179 10.7284 2.44742L10.3831 1.50894ZM11.3343 1.41666C10.9692 1.41666 10.6546 1.40901 10.3831 1.50894L10.7284 2.44742C10.7912 2.4243 10.8842 2.41666 11.3343 2.41666V1.41666ZM12.6656 1.41666H11.3343V2.41666H12.6656V1.41666ZM13.6171 1.509C13.3454 1.40901 13.0308 1.41666 12.6656 1.41666V2.41666C13.1158 2.41666 13.2088 2.42431 13.2716 2.44744L13.6171 1.509ZM14.4452 2.2552C14.2753 1.90932 13.9787 1.64212 13.6171 1.509L13.2716 2.44744C13.3922 2.49181 13.491 2.58088 13.5477 2.69617L14.4452 2.2552ZM15.5 11.5C15.5 13.3211 13.9533 14.8333 12 14.8333V15.8333C14.465 15.8333 16.5 13.9131 16.5 11.5H15.5ZM12 8.16666C13.9533 8.16666 15.5 9.67888 15.5 11.5H16.5C16.5 9.08691 14.465 7.16666 12 7.16666V8.16666ZM8.5 11.5C8.5 9.67888 10.0467 8.16666 12 8.16666V7.16666C9.53499 7.16666 7.5 9.08691 7.5 11.5H8.5ZM12 14.8333C10.0467 14.8333 8.5 13.3211 8.5 11.5H7.5C7.5 13.9131 9.53499 15.8333 12 15.8333V14.8333Z" fill="#222222"/>
</svg>
