<svg width="41" height="29" viewBox="0 0 41 29" fill="none" xmlns="http://www.w3.org/2000/svg">
<path d="M2.27778 0C1.02915 0 0 0.63401 0 1.40323V27.5968C0 28.366 1.02915 29 2.27778 29H38.7222C39.9708 29 41 28.366 41 27.5968V1.40323C41 0.63401 39.9708 0 38.7222 0H2.27778ZM2.27778 0.935484H5.31482V28.0645H2.27778C1.84773 28.0645 1.51852 27.8617 1.51852 27.5968V1.40323C1.51852 1.13829 1.84773 0.935484 2.27778 0.935484ZM6.83333 0.935484H38.7222C39.1523 0.935484 39.4815 1.13829 39.4815 1.40323V27.5968C39.4815 27.8617 39.1523 28.0645 38.7222 28.0645H6.83333V27.129C7.25152 27.129 7.59259 26.9189 7.59259 26.6613C7.59259 26.4037 7.25152 26.1935 6.83333 26.1935V2.80645C7.25152 2.80645 7.59259 2.59633 7.59259 2.33871C7.59259 2.08109 7.25152 1.87097 6.83333 1.87097V0.935484ZM9.87037 1.87097C9.45218 1.87097 9.11111 2.08109 9.11111 2.33871C9.11111 2.59633 9.45218 2.80645 9.87037 2.80645C10.2886 2.80645 10.6296 2.59633 10.6296 2.33871C10.6296 2.08109 10.2886 1.87097 9.87037 1.87097ZM12.9074 1.87097C12.4892 1.87097 12.1481 2.08109 12.1481 2.33871C12.1481 2.59633 12.4892 2.80645 12.9074 2.80645C13.3256 2.80645 13.6667 2.59633 13.6667 2.33871C13.6667 2.08109 13.3256 1.87097 12.9074 1.87097ZM15.9444 1.87097C15.5263 1.87097 15.1852 2.08109 15.1852 2.33871C15.1852 2.59633 15.5263 2.80645 15.9444 2.80645C16.3626 2.80645 16.7037 2.59633 16.7037 2.33871C16.7037 2.08109 16.3626 1.87097 15.9444 1.87097ZM18.9815 1.87097C18.5633 1.87097 18.2222 2.08109 18.2222 2.33871C18.2222 2.59633 18.5633 2.80645 18.9815 2.80645C19.3997 2.80645 19.7407 2.59633 19.7407 2.33871C19.7407 2.08109 19.3997 1.87097 18.9815 1.87097ZM22.0185 1.87097C21.6003 1.87097 21.2593 2.08109 21.2593 2.33871C21.2593 2.59633 21.6003 2.80645 22.0185 2.80645C22.4367 2.80645 22.7778 2.59633 22.7778 2.33871C22.7778 2.08109 22.4367 1.87097 22.0185 1.87097ZM25.0556 1.87097C24.6374 1.87097 24.2963 2.08109 24.2963 2.33871C24.2963 2.59633 24.6374 2.80645 25.0556 2.80645C25.4737 2.80645 25.8148 2.59633 25.8148 2.33871C25.8148 2.08109 25.4737 1.87097 25.0556 1.87097ZM28.0926 1.87097C27.6744 1.87097 27.3333 2.08109 27.3333 2.33871C27.3333 2.59633 27.6744 2.80645 28.0926 2.80645C28.5108 2.80645 28.8519 2.59633 28.8519 2.33871C28.8519 2.08109 28.5108 1.87097 28.0926 1.87097ZM31.1296 1.87097C30.7114 1.87097 30.3704 2.08109 30.3704 2.33871C30.3704 2.59633 30.7114 2.80645 31.1296 2.80645C31.5478 2.80645 31.8889 2.59633 31.8889 2.33871C31.8889 2.08109 31.5478 1.87097 31.1296 1.87097ZM34.1667 1.87097C33.7485 1.87097 33.4074 2.08109 33.4074 2.33871C33.4074 2.59633 33.7485 2.80645 34.1667 2.80645C34.5849 2.80645 34.9259 2.59633 34.9259 2.33871C34.9259 2.08109 34.5849 1.87097 34.1667 1.87097ZM37.2037 1.87097C36.7855 1.87097 36.4444 2.08109 36.4444 2.33871C36.4444 2.59633 36.7855 2.80645 37.2037 2.80645C37.6219 2.80645 37.963 2.59633 37.963 2.33871C37.963 2.08109 37.6219 1.87097 37.2037 1.87097ZM37.2037 3.74194C36.7855 3.74194 36.4444 3.95205 36.4444 4.20968C36.4444 4.4673 36.7855 4.67742 37.2037 4.67742C37.6219 4.67742 37.963 4.4673 37.963 4.20968C37.963 3.95205 37.6219 3.74194 37.2037 3.74194ZM37.2037 5.6129C36.7855 5.6129 36.4444 5.82302 36.4444 6.08065C36.4444 6.33827 36.7855 6.54839 37.2037 6.54839C37.6219 6.54839 37.963 6.33827 37.963 6.08065C37.963 5.82302 37.6219 5.6129 37.2037 5.6129ZM37.2037 7.48387C36.7855 7.48387 36.4444 7.69399 36.4444 7.95161C36.4444 8.20924 36.7855 8.41935 37.2037 8.41935C37.6219 8.41935 37.963 8.20924 37.963 7.95161C37.963 7.69399 37.6219 7.48387 37.2037 7.48387ZM21.2593 8.8871C18.332 8.8871 15.9444 10.3579 15.9444 12.1613C15.9444 13.2868 16.8787 14.2844 18.2904 14.8727C15.5767 15.5871 13.6667 17.248 13.6667 19.1774H15.1852C15.1852 17.1055 17.896 15.4355 21.2593 15.4355C24.6225 15.4355 27.3333 17.1055 27.3333 19.1774H28.8519C28.8519 17.248 26.9418 15.5871 24.2281 14.8727C25.6398 14.2844 26.5741 13.2868 26.5741 12.1613C26.5741 10.3579 24.1866 8.8871 21.2593 8.8871ZM37.2037 9.35484C36.7855 9.35484 36.4444 9.56496 36.4444 9.82258C36.4444 10.0802 36.7855 10.2903 37.2037 10.2903C37.6219 10.2903 37.963 10.0802 37.963 9.82258C37.963 9.56496 37.6219 9.35484 37.2037 9.35484ZM21.2593 9.82258C23.365 9.82258 25.0556 10.864 25.0556 12.1613C25.0556 13.4585 23.365 14.5 21.2593 14.5C19.1535 14.5 17.463 13.4585 17.463 12.1613C17.463 10.864 19.1535 9.82258 21.2593 9.82258ZM37.2037 11.2258C36.7855 11.2258 36.4444 11.4359 36.4444 11.6935C36.4444 11.9512 36.7855 12.1613 37.2037 12.1613C37.6219 12.1613 37.963 11.9512 37.963 11.6935C37.963 11.4359 37.6219 11.2258 37.2037 11.2258ZM37.2037 13.0968C36.7855 13.0968 36.4444 13.3069 36.4444 13.5645C36.4444 13.8221 36.7855 14.0323 37.2037 14.0323C37.6219 14.0323 37.963 13.8221 37.963 13.5645C37.963 13.3069 37.6219 13.0968 37.2037 13.0968ZM37.2037 14.9677C36.7855 14.9677 36.4444 15.1779 36.4444 15.4355C36.4444 15.6931 36.7855 15.9032 37.2037 15.9032C37.6219 15.9032 37.963 15.6931 37.963 15.4355C37.963 15.1779 37.6219 14.9677 37.2037 14.9677ZM37.2037 16.8387C36.7855 16.8387 36.4444 17.0488 36.4444 17.3065C36.4444 17.5641 36.7855 17.7742 37.2037 17.7742C37.6219 17.7742 37.963 17.5641 37.963 17.3065C37.963 17.0488 37.6219 16.8387 37.2037 16.8387ZM37.2037 18.7097C36.7855 18.7097 36.4444 18.9198 36.4444 19.1774C36.4444 19.435 36.7855 19.6452 37.2037 19.6452C37.6219 19.6452 37.963 19.435 37.963 19.1774C37.963 18.9198 37.6219 18.7097 37.2037 18.7097ZM37.2037 20.5806C36.7855 20.5806 36.4444 20.7908 36.4444 21.0484C36.4444 21.306 36.7855 21.5161 37.2037 21.5161C37.6219 21.5161 37.963 21.306 37.963 21.0484C37.963 20.7908 37.6219 20.5806 37.2037 20.5806ZM37.2037 22.4516C36.7855 22.4516 36.4444 22.6617 36.4444 22.9194C36.4444 23.177 36.7855 23.3871 37.2037 23.3871C37.6219 23.3871 37.963 23.177 37.963 22.9194C37.963 22.6617 37.6219 22.4516 37.2037 22.4516ZM37.2037 24.3226C36.7855 24.3226 36.4444 24.5327 36.4444 24.7903C36.4444 25.0479 36.7855 25.2581 37.2037 25.2581C37.6219 25.2581 37.963 25.0479 37.963 24.7903C37.963 24.5327 37.6219 24.3226 37.2037 24.3226ZM9.87037 26.1935C9.45218 26.1935 9.11111 26.4037 9.11111 26.6613C9.11111 26.9189 9.45218 27.129 9.87037 27.129C10.2886 27.129 10.6296 26.9189 10.6296 26.6613C10.6296 26.4037 10.2886 26.1935 9.87037 26.1935ZM12.9074 26.1935C12.4892 26.1935 12.1481 26.4037 12.1481 26.6613C12.1481 26.9189 12.4892 27.129 12.9074 27.129C13.3256 27.129 13.6667 26.9189 13.6667 26.6613C13.6667 26.4037 13.3256 26.1935 12.9074 26.1935ZM15.9444 26.1935C15.5263 26.1935 15.1852 26.4037 15.1852 26.6613C15.1852 26.9189 15.5263 27.129 15.9444 27.129C16.3626 27.129 16.7037 26.9189 16.7037 26.6613C16.7037 26.4037 16.3626 26.1935 15.9444 26.1935ZM18.9815 26.1935C18.5633 26.1935 18.2222 26.4037 18.2222 26.6613C18.2222 26.9189 18.5633 27.129 18.9815 27.129C19.3997 27.129 19.7407 26.9189 19.7407 26.6613C19.7407 26.4037 19.3997 26.1935 18.9815 26.1935ZM22.0185 26.1935C21.6003 26.1935 21.2593 26.4037 21.2593 26.6613C21.2593 26.9189 21.6003 27.129 22.0185 27.129C22.4367 27.129 22.7778 26.9189 22.7778 26.6613C22.7778 26.4037 22.4367 26.1935 22.0185 26.1935ZM25.0556 26.1935C24.6374 26.1935 24.2963 26.4037 24.2963 26.6613C24.2963 26.9189 24.6374 27.129 25.0556 27.129C25.4737 27.129 25.8148 26.9189 25.8148 26.6613C25.8148 26.4037 25.4737 26.1935 25.0556 26.1935ZM28.0926 26.1935C27.6744 26.1935 27.3333 26.4037 27.3333 26.6613C27.3333 26.9189 27.6744 27.129 28.0926 27.129C28.5108 27.129 28.8519 26.9189 28.8519 26.6613C28.8519 26.4037 28.5108 26.1935 28.0926 26.1935ZM31.1296 26.1935C30.7114 26.1935 30.3704 26.4037 30.3704 26.6613C30.3704 26.9189 30.7114 27.129 31.1296 27.129C31.5478 27.129 31.8889 26.9189 31.8889 26.6613C31.8889 26.4037 31.5478 26.1935 31.1296 26.1935ZM34.1667 26.1935C33.7485 26.1935 33.4074 26.4037 33.4074 26.6613C33.4074 26.9189 33.7485 27.129 34.1667 27.129C34.5849 27.129 34.9259 26.9189 34.9259 26.6613C34.9259 26.4037 34.5849 26.1935 34.1667 26.1935ZM37.2037 26.1935C36.7855 26.1935 36.4444 26.4037 36.4444 26.6613C36.4444 26.9189 36.7855 27.129 37.2037 27.129C37.6219 27.129 37.963 26.9189 37.963 26.6613C37.963 26.4037 37.6219 26.1935 37.2037 26.1935Z" fill="black"/>
</svg>
