<svg width="40" height="34" viewBox="0 0 40 34" fill="none" xmlns="http://www.w3.org/2000/svg">
<g filter="url(#filter0_d_5_7)">
<path d="M20.3046 24.0614L19.9684 23.1197L19.9684 23.1197L20.3046 24.0614ZM19.6954 24.0614L19.3591 25.0032L19.3591 25.0032L19.6954 24.0614ZM30.6666 13.2917C30.6666 15.9736 28.6572 18.2411 26.1049 20.0104C23.6006 21.7464 20.8559 22.8028 19.9684 23.1197L20.6408 25.0032C21.5905 24.6641 24.5269 23.5378 27.2443 21.6541C29.9137 19.8036 32.6666 17.0142 32.6666 13.2917H30.6666ZM20 5.83334C23.0339 5.83334 25.7399 6.72635 27.6626 8.12033C29.5865 9.51514 30.6666 11.3561 30.6666 13.2917H32.6666C32.6666 10.5558 31.1352 8.16763 28.8365 6.50111C26.5368 4.83378 23.4093 3.83334 20 3.83334V5.83334ZM9.33331 13.2917C9.33331 11.3561 10.4135 9.51514 12.3374 8.12033C14.2601 6.72635 16.966 5.83334 20 5.83334V3.83334C16.5906 3.83334 13.4632 4.83378 11.1634 6.50111C8.86479 8.16763 7.33331 10.5558 7.33331 13.2917H9.33331ZM20.0316 23.1197C19.1441 22.8028 16.3994 21.7464 13.8951 20.0104C11.3428 18.2411 9.33331 15.9736 9.33331 13.2917H7.33331C7.33331 17.0142 10.0862 19.8036 12.7557 21.6541C15.473 23.5378 18.4094 24.6641 19.3591 25.0032L20.0316 23.1197ZM19.9684 23.1197C19.9757 23.117 19.9867 23.1146 20 23.1146C20.0133 23.1146 20.0243 23.117 20.0316 23.1197L19.3591 25.0032C19.7752 25.1518 20.2247 25.1518 20.6408 25.0032L19.9684 23.1197ZM24 13.2917C24 13.8925 23.666 14.5252 22.9485 15.0453C22.2322 15.5646 21.193 15.9167 20 15.9167V17.9167C21.5684 17.9167 23.0291 17.4572 24.1225 16.6645C25.2147 15.8727 26 14.6928 26 13.2917H24ZM20 10.6667C21.193 10.6667 22.2322 11.0187 22.9485 11.538C23.666 12.0582 24 12.6908 24 13.2917H26C26 11.8905 25.2147 10.7106 24.1225 9.9188C23.0291 9.12612 21.5684 8.66667 20 8.66667V10.6667ZM16 13.2917C16 12.6908 16.334 12.0582 17.0514 11.538C17.7677 11.0187 18.807 10.6667 20 10.6667V8.66667C18.4316 8.66667 16.9708 9.12612 15.8775 9.9188C14.7853 10.7106 14 11.8905 14 13.2917H16ZM20 15.9167C18.807 15.9167 17.7677 15.5646 17.0514 15.0453C16.334 14.5252 16 13.8925 16 13.2917H14C14 14.6928 14.7853 15.8727 15.8775 16.6645C16.9708 17.4572 18.4316 17.9167 20 17.9167V15.9167Z" fill="#33363F"/>
</g>
<defs>
<filter id="filter0_d_5_7" x="-4" y="0" width="48" height="37" filterUnits="userSpaceOnUse" color-interpolation-filters="sRGB">
<feFlood flood-opacity="0" result="BackgroundImageFix"/>
<feColorMatrix in="SourceAlpha" type="matrix" values="0 0 0 0 0 0 0 0 0 0 0 0 0 0 0 0 0 0 127 0" result="hardAlpha"/>
<feOffset dy="4"/>
<feGaussianBlur stdDeviation="2"/>
<feComposite in2="hardAlpha" operator="out"/>
<feColorMatrix type="matrix" values="0 0 0 0 0 0 0 0 0 0 0 0 0 0 0 0 0 0 0.25 0"/>
<feBlend mode="normal" in2="BackgroundImageFix" result="effect1_dropShadow_5_7"/>
<feBlend mode="normal" in="SourceGraphic" in2="effect1_dropShadow_5_7" result="shape"/>
</filter>
</defs>
</svg>
